<svg xmlns="http://www.w3.org/2000/svg" xmlns:xlink="http://www.w3.org/1999/xlink" width="460" zoomAndPan="magnify" viewBox="0 0 345 97.5" height="130" preserveAspectRatio="xMidYMid meet" version="1.0"><defs><g/><clipPath id="b7a1959937"><path d="M 0.878906 4.550781 L 91 4.550781 L 91 95 L 0.878906 95 Z M 0.878906 4.550781 " clip-rule="nonzero"/></clipPath><clipPath id="458c12a105"><path d="M 18.042969 4.550781 L 74.410156 4.550781 C 78.960938 4.550781 83.328125 6.359375 86.546875 9.578125 C 89.765625 12.796875 91.574219 17.160156 91.574219 21.710938 L 91.574219 77.882812 C 91.574219 82.433594 89.765625 86.800781 86.546875 90.019531 C 83.328125 93.238281 78.960938 95.046875 74.410156 95.046875 L 18.042969 95.046875 C 13.492188 95.046875 9.125 93.238281 5.90625 90.019531 C 2.6875 86.800781 0.878906 82.433594 0.878906 77.882812 L 0.878906 21.710938 C 0.878906 17.160156 2.6875 12.796875 5.90625 9.578125 C 9.125 6.359375 13.492188 4.550781 18.042969 4.550781 " clip-rule="nonzero"/></clipPath><clipPath id="00d7410d72"><path d="M 25 16.710938 L 79.546875 16.710938 L 79.546875 71 L 25 71 Z M 25 16.710938 " clip-rule="nonzero"/></clipPath><clipPath id="d25b634c09"><path d="M 13.136719 64 L 32 64 L 32 83 L 13.136719 83 Z M 13.136719 64 " clip-rule="nonzero"/></clipPath></defs><g clip-path="url(#b7a1959937)"><g clip-path="url(#458c12a105)"><path fill="#ffffff" d="M 0.878906 4.550781 L 90.5625 4.550781 L 90.5625 94.230469 L 0.878906 94.230469 Z M 0.878906 4.550781 " fill-opacity="1" fill-rule="nonzero"/></g></g><path fill="#f85f00" d="M 33.351562 72.207031 L 39.472656 69.523438 L 26.734375 56.785156 L 24.046875 62.910156 C 24.046875 62.910156 23.363281 64.121094 27.75 68.507812 C 32.136719 72.894531 33.351562 72.207031 33.351562 72.207031 Z M 33.351562 72.207031 " fill-opacity="1" fill-rule="nonzero"/><path fill="#f85f00" d="M 41.117188 80.363281 C 40.871094 80.574219 40.59375 80.445312 40.527344 80.085938 L 38.273438 69.535156 C 38.195312 69.179688 38.339844 68.71875 38.597656 68.515625 L 48.433594 60.378906 C 48.6875 60.167969 48.960938 60.289062 49.039062 60.648438 L 49.191406 73.296875 C 49.269531 73.65625 49.125 74.113281 48.867188 74.316406 Z M 41.117188 80.363281 " fill-opacity="1" fill-rule="nonzero"/><path fill="#f85f00" d="M 15.980469 55.195312 C 15.773438 55.445312 15.902344 55.714844 16.265625 55.792969 L 26.792969 58.035156 C 27.148438 58.109375 27.601562 57.96875 27.804688 57.714844 L 35.929688 47.898438 C 36.132812 47.644531 36.015625 47.375 35.65625 47.304688 L 23.039062 47.144531 C 22.679688 47.066406 22.222656 47.207031 22.011719 47.464844 Z M 15.980469 55.195312 " fill-opacity="1" fill-rule="nonzero"/><g clip-path="url(#00d7410d72)"><path fill="#f85f00" d="M 79.324219 16.929688 C 79.324219 16.929688 69.46875 16.636719 59.625 21.539062 C 56.464844 23.117188 53.300781 25.230469 50.46875 28.058594 C 42.210938 36.316406 25.542969 57.503906 25.542969 57.503906 C 25.542969 57.503906 24.808594 59.890625 30.585938 65.675781 C 36.367188 71.453125 38.753906 70.710938 38.753906 70.710938 C 38.753906 70.710938 60.175781 53.804688 68.191406 45.789062 C 71.011719 42.964844 73.121094 39.804688 74.699219 36.636719 C 79.582031 26.8125 79.324219 16.929688 79.324219 16.929688 Z M 59.445312 42.019531 C 56.570312 42.019531 54.238281 39.6875 54.238281 36.8125 C 54.238281 33.933594 56.570312 31.601562 59.445312 31.601562 C 62.324219 31.601562 64.65625 33.933594 64.65625 36.8125 C 64.65625 39.6875 62.324219 42.019531 59.445312 42.019531 Z M 59.445312 42.019531 " fill-opacity="1" fill-rule="nonzero"/></g><g clip-path="url(#d25b634c09)"><path fill="#f85f00" d="M 30.773438 74.683594 C 25.785156 78.507812 18.355469 77.910156 18.355469 77.910156 C 18.355469 77.910156 17.753906 70.472656 21.578125 65.488281 C 21.285156 65.046875 21.054688 64.65625 20.867188 64.296875 C 20.253906 64.8125 19.640625 65.308594 19.046875 65.898438 C 13.121094 71.828125 13.976562 82.28125 13.976562 82.28125 C 13.976562 82.28125 24.433594 83.132812 30.359375 77.207031 C 30.949219 76.617188 31.449219 76.003906 31.960938 75.394531 C 31.601562 75.207031 31.210938 74.972656 30.773438 74.683594 Z M 30.773438 74.683594 " fill-opacity="1" fill-rule="nonzero"/></g><g fill="#ffffff" fill-opacity="1"><g transform="translate(97.850632, 42.650467)"><g><path d="M 13.613281 -27.304688 L 3.121094 -27.304688 L 3.121094 0 L 9.011719 0 L 9.011719 -8.503906 L 13.613281 -8.503906 C 19.113281 -8.503906 23.25 -12.523438 23.25 -17.90625 C 23.25 -23.289062 19.074219 -27.304688 13.613281 -27.304688 Z M 13.339844 -13.964844 L 9.011719 -13.964844 L 9.011719 -21.804688 L 13.339844 -21.804688 C 15.679688 -21.804688 17.28125 -20.167969 17.28125 -17.90625 C 17.28125 -15.640625 15.679688 -13.964844 13.339844 -13.964844 Z M 13.339844 -13.964844 "/></g></g></g><g fill="#ffffff" fill-opacity="1"><g transform="translate(122.111503, 42.650467)"><g><path d="M 13.496094 -21.179688 C 10.765625 -21.179688 8.894531 -20.324219 7.371094 -18.449219 L 6.359375 -21.0625 L 2.730469 -21.0625 L 2.730469 0 L 8.425781 0 L 8.425781 -10.921875 C 8.425781 -14.355469 9.675781 -15.796875 12.871094 -15.796875 L 15.367188 -15.796875 L 15.367188 -21.179688 Z M 13.496094 -21.179688 "/></g></g></g><g fill="#ffffff" fill-opacity="1"><g transform="translate(137.986375, 42.650467)"><g><path d="M 12.714844 0.625 C 19.230469 0.625 24.105469 -4.175781 24.105469 -10.53125 C 24.105469 -16.890625 19.230469 -21.648438 12.714844 -21.648438 C 6.203125 -21.648438 1.328125 -16.890625 1.328125 -10.53125 C 1.328125 -4.175781 6.203125 0.625 12.714844 0.625 Z M 12.714844 -4.757812 C 9.441406 -4.757812 7.097656 -7.097656 7.097656 -10.53125 C 7.097656 -13.925781 9.441406 -16.304688 12.714844 -16.304688 C 15.992188 -16.304688 18.332031 -13.925781 18.332031 -10.53125 C 18.332031 -7.097656 15.992188 -4.757812 12.714844 -4.757812 Z M 12.714844 -4.757812 "/></g></g></g><g fill="#ffffff" fill-opacity="1"><g transform="translate(163.45639, 42.650467)"><g><path d="M 15.601562 -20.753906 L 10.179688 -20.753906 L 10.179688 -22.546875 C 10.179688 -24.027344 10.960938 -24.808594 12.484375 -24.808594 L 15.5625 -24.808594 L 15.5625 -29.292969 L 11.351562 -29.292969 C 6.90625 -29.292969 4.640625 -26.71875 4.640625 -22.664062 L 4.640625 -20.753906 L 0.976562 -20.753906 L 0.976562 -16.070312 L 4.601562 -16.070312 L 4.601562 0 L 10.296875 0 L 10.296875 -16.070312 L 15.601562 -16.070312 Z M 15.601562 -20.753906 "/></g></g></g><g fill="#ffffff" fill-opacity="1"><g transform="translate(179.643306, 42.650467)"><g><path d="M 2.730469 -23.871094 L 8.386719 -23.871094 L 8.386719 -29.140625 L 2.730469 -29.140625 Z M 2.730469 0 L 8.425781 0 L 8.425781 -21.0625 L 2.730469 -21.0625 Z M 2.730469 0 "/></g></g></g><g fill="#ffffff" fill-opacity="1"><g transform="translate(190.798627, 42.650467)"><g><path d="M 12.523438 0.625 C 18.023438 0.625 22.351562 -2.964844 23.328125 -8.269531 L 17.59375 -8.269531 C 16.617188 -6.007812 14.824219 -4.757812 12.523438 -4.757812 C 9.480469 -4.757812 7.097656 -7.292969 7.097656 -10.53125 C 7.097656 -13.808594 9.441406 -16.304688 12.523438 -16.304688 C 14.785156 -16.304688 16.695312 -15.058594 17.59375 -12.988281 L 23.25 -12.988281 C 22.234375 -18.175781 18.023438 -21.648438 12.558594 -21.648438 C 6.164062 -21.648438 1.328125 -16.890625 1.328125 -10.570312 C 1.328125 -4.25 6.164062 0.625 12.523438 0.625 Z M 12.523438 0.625 "/></g></g></g><g fill="#ffffff" fill-opacity="1"><g transform="translate(215.17651, 42.650467)"><g><path d="M 2.730469 -23.871094 L 8.386719 -23.871094 L 8.386719 -29.140625 L 2.730469 -29.140625 Z M 2.730469 0 L 8.425781 0 L 8.425781 -21.0625 L 2.730469 -21.0625 Z M 2.730469 0 "/></g></g></g><g fill="#ffffff" fill-opacity="1"><g transform="translate(226.331831, 42.650467)"><g><path d="M 12.289062 -26.214844 L 15.175781 -23.367188 L 20.050781 -23.367188 L 15.523438 -29.292969 L 9.050781 -29.292969 L 4.601562 -23.367188 L 9.480469 -23.367188 Z M 23.171875 -10.570312 C 23.171875 -16.65625 18.722656 -21.648438 12.25 -21.648438 C 6.007812 -21.648438 1.328125 -16.851562 1.328125 -10.53125 C 1.328125 -4.210938 6.046875 0.625 12.25 0.625 C 17.164062 0.625 21.179688 -2.300781 22.703125 -6.90625 L 16.734375 -6.90625 C 15.875 -5.382812 14.238281 -4.445312 12.25 -4.445312 C 9.480469 -4.445312 7.605469 -6.046875 7.097656 -8.933594 L 23.054688 -8.933594 C 23.132812 -9.480469 23.171875 -10.023438 23.171875 -10.570312 Z M 12.25 -16.773438 C 14.824219 -16.773438 16.65625 -15.367188 17.476562 -12.792969 L 7.253906 -12.792969 C 7.917969 -15.292969 9.714844 -16.773438 12.25 -16.773438 Z M 12.25 -16.773438 "/></g></g></g><g fill="#ffffff" fill-opacity="1"><g transform="translate(250.826725, 42.650467)"><g><path d="M 14.707031 -21.53125 C 11.859375 -21.53125 9.324219 -20.324219 7.722656 -18.449219 L 6.632812 -21.0625 L 2.730469 -21.0625 L 2.730469 0 L 8.425781 0 L 8.425781 -11.039062 C 8.425781 -14.433594 10.21875 -16.539062 13.144531 -16.539062 C 15.601562 -16.539062 16.8125 -15.019531 16.8125 -11.820312 L 16.8125 0 L 22.507812 0 L 22.507812 -12.753906 C 22.507812 -18.101562 19.503906 -21.53125 14.707031 -21.53125 Z M 14.707031 -21.53125 "/></g></g></g><g fill="#ffffff" fill-opacity="1"><g transform="translate(275.828682, 42.650467)"><g><path d="M 12.523438 0.625 C 18.023438 0.625 22.351562 -2.964844 23.328125 -8.269531 L 17.59375 -8.269531 C 16.617188 -6.007812 14.824219 -4.757812 12.523438 -4.757812 C 9.480469 -4.757812 7.097656 -7.292969 7.097656 -10.53125 C 7.097656 -13.808594 9.441406 -16.304688 12.523438 -16.304688 C 14.785156 -16.304688 16.695312 -15.058594 17.59375 -12.988281 L 23.25 -12.988281 C 22.234375 -18.175781 18.023438 -21.648438 12.558594 -21.648438 C 6.164062 -21.648438 1.328125 -16.890625 1.328125 -10.570312 C 1.328125 -4.25 6.164062 0.625 12.523438 0.625 Z M 12.523438 0.625 "/></g></g></g><g fill="#ffffff" fill-opacity="1"><g transform="translate(300.206565, 42.650467)"><g><path d="M 2.730469 -23.871094 L 8.386719 -23.871094 L 8.386719 -29.140625 L 2.730469 -29.140625 Z M 2.730469 0 L 8.425781 0 L 8.425781 -21.0625 L 2.730469 -21.0625 Z M 2.730469 0 "/></g></g></g><g fill="#ffffff" fill-opacity="1"><g transform="translate(311.361886, 42.650467)"><g><path d="M 19.894531 -21.0625 L 19.308594 -19.074219 C 17.476562 -20.675781 15.097656 -21.648438 12.367188 -21.648438 C 6.046875 -21.648438 1.328125 -16.890625 1.328125 -10.53125 C 1.328125 -4.175781 6.046875 0.625 12.367188 0.625 C 15.058594 0.625 17.398438 -0.3125 19.191406 -1.910156 L 19.699219 0 L 24.144531 0 L 24.144531 -21.0625 Z M 12.832031 -4.757812 C 9.519531 -4.757812 7.097656 -7.253906 7.097656 -10.53125 C 7.097656 -13.847656 9.519531 -16.304688 12.832031 -16.304688 C 16.148438 -16.304688 18.566406 -13.847656 18.566406 -10.53125 C 18.566406 -7.214844 16.148438 -4.757812 12.832031 -4.757812 Z M 12.832031 -4.757812 "/></g></g></g><g fill="#ffffff" fill-opacity="1"><g transform="translate(97.850632, 78.388328)"><g><path d="M 13.847656 -27.304688 L 2.144531 -27.304688 L 2.144531 0 L 13.847656 0 C 22.429688 0 28.28125 -5.617188 28.28125 -13.652344 C 28.28125 -21.765625 22.429688 -27.304688 13.847656 -27.304688 Z M 13.222656 -8.191406 L 11.273438 -8.191406 L 11.273438 -19.113281 L 13.222656 -19.113281 C 16.773438 -19.113281 18.996094 -17.007812 18.996094 -13.652344 C 18.996094 -10.296875 16.773438 -8.191406 13.222656 -8.191406 Z M 13.222656 -8.191406 "/></g></g></g><g fill="#ffffff" fill-opacity="1"><g transform="translate(127.026086, 78.388328)"><g><path d="M 11.117188 -7.332031 L 11.117188 -10.296875 L 19.816406 -10.296875 L 19.816406 -17.007812 L 11.117188 -17.007812 L 11.117188 -19.972656 L 20.832031 -19.972656 L 20.832031 -27.304688 L 2.144531 -27.304688 L 2.144531 0 L 21.023438 0 L 21.023438 -7.332031 Z M 11.117188 -7.332031 "/></g></g></g><g fill="#ffffff" fill-opacity="1"><g transform="translate(149.492744, 78.388328)"><g><path d="M 18.878906 -27.304688 L 14.589844 -12.792969 L 10.335938 -27.304688 L -0.3125 -27.304688 L 10.453125 0 L 18.761719 0 L 29.527344 -27.304688 Z M 18.878906 -27.304688 "/></g></g></g></svg>